<svg xmlns="http://www.w3.org/2000/svg" xmlns:xlink="http://www.w3.org/1999/xlink" x="0px" y="0px" viewBox="0 0 80 44" style="enable-background:new 0 0 80 44;" xml:space="preserve">
<style type="text/css">
	.main-log0{fill:#D25239;}
</style>
<g>
	<path d="M10,37.7c-1.9,0-3.8-0.3-5.7-0.8c-1.6-0.4-3-1.1-4.4-2l1.9-4.2c1.2,0.8,2.4,1.4,3.7,1.8   c1.4,0.5,2.9,0.7,4.4,0.7c0.9,0,1.8-0.1,2.7-0.3c0.6-0.2,1.1-0.5,1.5-0.9c0.3-0.4,0.5-0.9,0.5-1.3c0-0.6-0.3-1.2-0.8-1.5   c-0.6-0.4-1.3-0.7-2-0.9c-0.8-0.2-1.8-0.5-2.8-0.7s-2-0.5-3.1-0.8c-1-0.3-1.9-0.7-2.8-1.2c-0.8-0.5-1.5-1.2-2.1-2   c-0.6-1-0.8-2.1-0.8-3.2c0-1.3,0.4-2.7,1.1-3.8c0.9-1.2,2.1-2.2,3.5-2.7c1.8-0.7,3.8-1.1,5.8-1c1.5,0,3.1,0.2,4.6,0.5   c1.4,0.3,2.7,0.9,4,1.6l-1.8,4.2c-1.1-0.6-2.2-1.1-3.4-1.4c-1.1-0.3-2.2-0.5-3.4-0.5c-0.9,0-1.8,0.1-2.7,0.4   c-0.6,0.2-1.1,0.5-1.5,1C6.3,19,6.1,19.5,6.2,20c0,0.6,0.3,1.2,0.8,1.5c0.6,0.4,1.3,0.7,2,0.9c0.8,0.2,1.8,0.5,2.8,0.7   c1,0.2,2,0.5,3.1,0.8c1,0.3,1.9,0.7,2.8,1.2c0.8,0.5,1.5,1.2,2.1,2c0.6,0.9,0.8,2,0.8,3.1c0,1.3-0.4,2.6-1.2,3.7   c-0.9,1.2-2.1,2.2-3.5,2.7C14,37.4,12,37.8,10,37.7z M24.1,37.3L24,18.7l5.5,0l0,18.5H24.1z M26.7,16.2c-0.9,0-1.8-0.3-2.5-0.9   c-0.6-0.5-1-1.3-0.9-2.1c0-0.8,0.3-1.6,0.9-2.1c0.7-0.6,1.6-0.9,2.5-0.9c0.9,0,1.8,0.2,2.5,0.8c0.6,0.5,1,1.3,0.9,2.1   c0,0.8-0.3,1.7-0.9,2.2C28.5,15.9,27.6,16.2,26.7,16.2L26.7,16.2z M34.6,37.3V18.7h5.2V24l-0.7-1.5c0.5-1.3,1.5-2.3,2.7-3   c1.4-0.7,3-1.1,4.5-1v5c-0.2,0-0.4,0-0.6-0.1c-0.2,0-0.4,0-0.6,0c-1.3-0.1-2.6,0.4-3.6,1.3c-1,1-1.5,2.5-1.4,3.9v8.8H34.6z    M60.8,37.6c-1.5,0-2.9-0.3-4.2-1c-1.2-0.7-2.2-1.8-2.8-3.2c-0.7-1.7-1.1-3.5-1-5.4c-0.1-1.8,0.3-3.7,0.9-5.4   c0.6-1.3,1.5-2.4,2.7-3.1c1.3-0.7,2.8-1.1,4.3-1c1.7,0,3.3,0.4,4.8,1.2c1.4,0.8,2.6,1.9,3.4,3.3c0.9,1.5,1.3,3.3,1.2,5   c0,1.8-0.4,3.5-1.2,5.1c-0.8,1.4-2,2.5-3.4,3.3C64.1,37.2,62.4,37.6,60.8,37.6L60.8,37.6z M49.6,44V18.7h5.2v3.8l-0.1,5.5l0.4,5.5   V44H49.6z M59.8,33.2c0.9,0,1.7-0.2,2.4-0.6c0.7-0.4,1.3-1,1.7-1.8c0.5-0.8,0.7-1.8,0.7-2.7c0-1-0.2-1.9-0.7-2.8   c-0.4-0.7-1-1.3-1.7-1.8c-0.7-0.4-1.6-0.6-2.4-0.6c-0.9,0-1.7,0.2-2.5,0.6c-0.7,0.4-1.3,1-1.7,1.8C55.2,26.1,55,27.1,55,28   c0,1,0.2,1.9,0.6,2.7c0.4,0.7,1,1.4,1.7,1.8C58.1,33,59,33.2,59.8,33.2z M73.9,37.3l-0.1-18.6l5.5,0l0,18.5H73.9z M76.6,16.2   c-0.9,0-1.8-0.3-2.5-0.9c-0.6-0.5-1-1.3-0.9-2.1c0-0.8,0.3-1.6,0.9-2.1c0.7-0.6,1.6-0.9,2.5-0.9c0.9,0,1.8,0.2,2.5,0.8   c0.6,0.5,1,1.3,0.9,2.1c0,0.8-0.3,1.7-0.9,2.2C78.4,15.9,77.5,16.2,76.6,16.2L76.6,16.2z"/>
	<g transform="translate(244.762 55.3) rotate(90)">
		<path class="main-log0" d="M-48.9,187.6c1.6-0.6,3.3-0.9,5-0.9c1.7,0,3.3,0.3,4.9,0.9v0.2c-1.2-0.4-2.5-0.6-3.8-0.6    c-2,0-3.9,0.4-5.6,1.3C-48.5,188.1-48.7,187.9-48.9,187.6 M-38.9,197.6c-6,2.2-12.7,0.2-16.4-5c1.4-2,3.3-3.5,5.5-4.5    c0.2,0.3,0.4,0.6,0.6,0.9c-1.6,0.9-3,2.2-4.1,3.7c3.3,4.5,9.1,6.5,14.4,4.8V197.6z"/>
		<path class="main-log0" d="M-44.4,180.7c1.7,0.3,3.4,0.9,4.9,1.7c0.2,0.1,0.4,0.3,0.6,0.4v0.5c-1.7-1-3.6-1.5-5.5-1.7    C-44.4,181.4-44.4,181.1-44.4,180.7 M-38.9,194.6c-7.1-0.3-12.8-5.7-13.5-12.7c2.2-1,4.6-1.4,7-1.2c0,0.4,0.1,0.7,0.1,1.1    c-1.8,0-3.6,0.4-5.3,1.2C-50.1,189-45.1,193.9-38.9,194.6L-38.9,194.6z"/>
		<path class="main-log0" d="M-38.9,192c-6.2-3.7-8.6-11.4-5.7-18c2,0.2,3.9,0.8,5.7,1.8v1.3c-1.5-0.8-3-1.2-4.7-1.4    C-46.2,181.5-44.2,188.4-38.9,192L-38.9,192z"/>
		<path class="main-log0" d="M-40.3,194.1c0.5-0.4,0.9-0.7,1.4-1v0.1c-0.4,0.3-0.9,0.6-1.3,1    C-40.2,194.1-40.3,194.1-40.3,194.1 M-45.7,203.1c0.6-3.5,2.4-6.6,5.2-8.8c0.1,0,0.1,0,0.2,0c-2.6,2.2-4.1,5.4-4.4,8.8    C-45,203.1-45.3,203.1-45.7,203.1 M-38.9,209.3c-1.7,1-3.7,1.6-5.7,1.8c-1-2.2-1.4-4.6-1.2-7c0.4,0,0.7-0.1,1.1-0.1    c0,1.8,0.4,3.7,1.1,5.4c1.6-0.2,3.2-0.6,4.7-1.4V209.3z"/>
		<path class="main-log0" d="M-40.3,190.7c0.5-0.1,0.9-0.1,1.4-0.1v0.1c-0.4,0-0.8,0.1-1.2,0.2L-40.3,190.7 M-49.4,195.8    c1.1-1.4,2.4-2.5,3.9-3.4c1.5-0.9,3.2-1.5,5-1.7c0,0,0.1,0.1,0.1,0.1c-1.4,0.3-2.7,0.8-3.9,1.5c-1.7,1-3.2,2.3-4.3,4    C-48.8,196.1-49.1,196-49.4,195.8 M-38.9,202.2c-0.2,0.1-0.4,0.3-0.6,0.4c-3.9,2.3-8.7,2.5-12.9,0.6c0.2-2.4,1.1-4.7,2.4-6.6    c0.3,0.2,0.6,0.3,1,0.4c-0.9,1.6-1.5,3.4-1.7,5.2c3.8,1.7,8.2,1.5,11.8-0.6L-38.9,202.2z"/>
	</g>
</g>
</svg>