<?xml version="1.0" encoding="utf-8"?>
<!-- Generator: Adobe Illustrator 23.0.6, SVG Export Plug-In . SVG Version: 6.00 Build 0)  -->
<svg version="1.1" id="Layer_1" xmlns="http://www.w3.org/2000/svg" xmlns:xlink="http://www.w3.org/1999/xlink" x="0px" y="0px"
	 viewBox="0 0 512 512" style="enable-background:new 0 0 512 512;" xml:space="preserve">
<style type="text/css">
	.st0{fill:#FFFFFF;}
</style>
<g>
	<g>
		<g>
			<path class="st0" d="M288.8,379.6c-31.1-2.4-44.1-17.8-68.5-32.6c-10.9,57-23.7,112.1-54,149.6c-8.8,10.9-26.6,5.4-27.3-8.6
				c-4.6-90.8,26.8-162.9,42.2-238.9c-29.3-49.2,3.5-148.4,65.2-124c75.9,30-65.8,183.1,29.4,202.2c99.3,20,139.9-172.3,78.3-234.9
				C265,2.3,95,90.5,115.9,219.8c4,24.6,24.6,35.8,22,60.1c-1.6,15.1-17.2,23.8-30.9,17.3c-39.4-18.4-51.6-58.8-49.7-110.1
				c3.5-98,88.1-166.7,172.9-176.2C337.3-1,438,50.4,451.9,151.3C467.5,265.2,403.5,388.5,288.8,379.6L288.8,379.6z"/>
		</g>
	</g>
</g>
</svg>
