<svg id="Layer_1" data-name="Layer 1" xmlns="http://www.w3.org/2000/svg" viewBox="0 0 535.32 535.32"><title>right_arrow</title><path d="M501.48,384.1H271.82a16,16,0,0,0,0,32H503.47l-64.36,62.84a15.1,15.1,0,0,0,0,21.87c6.25,6.25,16.39,5.87,22.63-.38l90.68-90.88a16.19,16.19,0,0,0,0-22.77l-90.69-90.69a16,16,0,0,0-22.63,0c-6.25,6.25-6.25,17.9,0,24.15Z" transform="translate(-140.25 -130.39)"/><path d="M140.25,398.06c0,147.58,120.07,267.65,267.65,267.65S675.57,545.64,675.57,398.06,555.5,130.39,407.9,130.39,140.25,250.46,140.25,398.06Zm503.32,0c0,129.93-105.72,235.65-235.67,235.65S172.25,528,172.25,398.06,278,162.39,407.9,162.39,643.57,268.11,643.57,398.06Z" transform="translate(-140.25 -130.39)"/></svg>