<svg id="Layer_1" data-name="Layer 1" xmlns="http://www.w3.org/2000/svg" viewBox="0 0 70.94 96.44"><defs><style>.cls-1{fill:#fff;stroke:#000;stroke-miterlimit:10;}</style></defs><title>skin_icon2</title><path class="cls-1" d="M942.55,573.69l4.8-3.2,3.2,4.8" transform="translate(-880.03 -506.39)"/><path class="cls-1" d="M947.25,570.49a33.64,33.64,0,0,1-11.1,19.1" transform="translate(-880.03 -506.39)"/><path class="cls-1" d="M888.35,573.69l-4.8-3.2-3.1,4.8" transform="translate(-880.03 -506.39)"/><path class="cls-1" d="M883.65,570.49a33.64,33.64,0,0,0,11.1,19.1" transform="translate(-880.03 -506.39)"/><path class="cls-1" d="M894.75,567.29c4.8,14.3,12.7,19.1,20.7,19.1s15.9-4.8,20.7-19.1a9.29,9.29,0,0,0,6.4-9.5h0a6.86,6.86,0,0,0-5.6-6.7,35.86,35.86,0,0,1-23.2-15" transform="translate(-880.03 -506.39)"/><path class="cls-1" d="M910.65,530.69a27.77,27.77,0,0,0,3,5.3,24,24,0,0,1-19.5,15.2,6.58,6.58,0,0,0-5.8,6.5h0a9.21,9.21,0,0,0,6.4,9.5" transform="translate(-880.03 -506.39)"/><path class="cls-1" d="M926.65,582.59c.2,15.1,6.4,18.2,9.5,19.8" transform="translate(-880.03 -506.39)"/><path class="cls-1" d="M894.75,602.29c3.1-1.6,9.3-4.6,9.5-19.8" transform="translate(-880.03 -506.39)"/><path class="cls-1" d="M891.15,552.49c0-.2-.1-.4-.1-.7a63.82,63.82,0,0,1-1-11.5c-.1-12.7,11.1-20.7,25.4-20.7s25.5,8,25.5,20.7a70.71,70.71,0,0,1-1.1,12.1" transform="translate(-880.03 -506.39)"/><path class="cls-1" d="M900.05,523.39c-3.9-11,5-16.5,15.4-16.5s19.3,5.5,15.4,16.5" transform="translate(-880.03 -506.39)"/><path class="cls-1" d="M931.35,559.39h-1.6a6.33,6.33,0,0,1-8,0h0" transform="translate(-880.03 -506.39)"/><path class="cls-1" d="M899.55,559.39h1.6a6.33,6.33,0,0,0,8,0h0" transform="translate(-880.03 -506.39)"/><path class="cls-1" d="M909.85,575.29h0a10.79,10.79,0,0,0,11.1.1h0l.1-.1" transform="translate(-880.03 -506.39)"/></svg>