<svg id="Layer_1" data-name="Layer 1" xmlns="http://www.w3.org/2000/svg" viewBox="0 0 96.1 96.98"><title>skin_icon3</title><path d="M924.75,543.74a11.85,11.85,0,0,1-12.4-11.3v-1.3c0-8.2,10.7-23.6,11.1-24.2a1.6,1.6,0,0,1,2.2-.4c.1.1.3.2.4.4.5.7,11.1,16,11.1,24.2a11.87,11.87,0,0,1-11.1,12.6,2.85,2.85,0,0,1-1.3,0m0-33.2c-3.4,5.3-9.3,15.3-9.3,20.6a9.3,9.3,0,1,0,18.6,0c0-5.3-5.9-15.3-9.3-20.6" transform="translate(-867.45 -506.27)"/><path d="M921.35,528.14a1.58,1.58,0,0,1-1.6-1.6,1.27,1.27,0,0,1,.1-.6,11.11,11.11,0,0,1,.7-1.6,1.58,1.58,0,0,1,2-.8,1.66,1.66,0,0,1,.8,2.1,9.38,9.38,0,0,0-.6,1.5,1.5,1.5,0,0,1-1.4,1" transform="translate(-867.45 -506.27)"/><path d="M923.15,537.44h-.3a5.23,5.23,0,0,1-4.1-4.2,1.59,1.59,0,1,1,3.1-.7h0a2,2,0,0,0,1.7,1.8,1.61,1.61,0,0,1,1.2,1.9,1.74,1.74,0,0,1-1.6,1.2" transform="translate(-867.45 -506.27)"/><path d="M903.85,559.44a8.08,8.08,0,0,1-8.5-7.7v-.9c0-5.3,6.5-14.7,7.3-15.7a1.6,1.6,0,0,1,2.2-.4c.1.1.3.2.4.4.7,1.1,7.3,10.5,7.3,15.7a8,8,0,0,1-7.6,8.6h-1.1m0-20.7c-2.2,3.4-5.4,9.1-5.4,12a5.4,5.4,0,1,0,10.8,0c0-2.9-3.2-8.6-5.4-12" transform="translate(-867.45 -506.27)"/><path d="M903.05,553.94a.6.6,0,0,1-.4-.1c-.9-.2-1.9-.9-1.9-3a1.56,1.56,0,0,1,1.5-1.6,1.58,1.58,0,0,1,1.6,1.6h0v.2a1.49,1.49,0,0,1,.5,2.1,1.65,1.65,0,0,1-1.3.8" transform="translate(-867.45 -506.27)"/><path d="M948,560.94a10.11,10.11,0,0,1-10.8-9.5v-1.2c0-6.7,8.6-18.7,9.6-20a1.58,1.58,0,0,1,2.2-.3l.3.3c1,1.3,9.6,13.3,9.6,20a10.32,10.32,0,0,1-9.7,10.7,2.44,2.44,0,0,1-1.2,0m0-27c-2.9,4.3-7.7,12.3-7.7,16.4a7.75,7.75,0,0,0,15.5,0c0-4.1-4.8-12.1-7.8-16.4" transform="translate(-867.45 -506.27)"/><path d="M946.45,554.54a.9.9,0,0,1-.5-.1,3.92,3.92,0,0,1-2.6-4.1v-.5a1.56,1.56,0,1,1,3.1.3v.2c0,1,.3,1.1.5,1.1a1.57,1.57,0,0,1,1,2,1.69,1.69,0,0,1-1.5,1.1" transform="translate(-867.45 -506.27)"/><path d="M869,596.94a1.5,1.5,0,0,1-1.5-1.6,1.61,1.61,0,0,1,.5-1.1L881,581a3.53,3.53,0,0,0,.8-1.3c1-3.7,5.5-15.7,18.2-15.7a35,35,0,0,1,15.3,2.8,3.08,3.08,0,0,0,1.3.3,95.26,95.26,0,0,1,16,.7c2.6.5,6,1.6,6,5.6,0,4.9-5.1,6.3-7.7,6.3h-18.5a1.5,1.5,0,0,1-1.5-1.6,1.56,1.56,0,0,1,1.5-1.6H931c.2,0,4.6-.1,4.6-3.1,0-.8,0-1.9-3.5-2.5a100,100,0,0,0-15.5-.6,6.26,6.26,0,0,1-2.7-.6,31.94,31.94,0,0,0-14-2.5c-10.3,0-14.1,9.4-15.3,13.4a6.27,6.27,0,0,1-1.6,2.7l-13,13.2c-.1.3-.5.4-1,.4" transform="translate(-867.45 -506.27)"/><path d="M895.35,603.24a1.58,1.58,0,0,1-1.6-1.6,1.28,1.28,0,0,1,.4-1l6.4-7.7a6.33,6.33,0,0,1,4.8-2.3H931c1.1-.2,6.7-3.2,15.5-9.3,9.3-6.4,13.4-10.2,14-11.3,0-2.1-.9-2.9-3.1-2.9-1.2.1-8,3.2-20.2,10.1a1.52,1.52,0,0,1-2.1-.6,1.49,1.49,0,0,1,.6-2.1c2.6-1.5,7.5-4.2,12.1-6.5,6.8-3.5,8.7-4,9.6-4a5.63,5.63,0,0,1,6.2,5.1v1.2c0,.9-.4,2.2-5,6-2.5,2.1-6.1,4.7-10,7.5-3.7,2.6-7.5,5-10.6,6.9-5.4,3.2-6.4,3.2-6.9,3.2h-25.8a3.19,3.19,0,0,0-2.4,1.1l-6.3,7.7a1.85,1.85,0,0,1-1.2.5m35.6-12.5Z" transform="translate(-867.45 -506.27)"/></svg>