<svg id="Layer_1" data-name="Layer 1" xmlns="http://www.w3.org/2000/svg" viewBox="0 0 173.12 172.57"><defs><style>.cls-1,.cls-2{fill:#fff;}.cls-1{stroke:#000;stroke-miterlimit:10;}</style></defs><title>skin_icon</title><path class="cls-1" d="M840.17,557.4a85.66,85.66,0,0,1,86-86,86.76,86.76,0,0,1,71.58,37.34" transform="translate(-839.67 -470.93)"/><path class="cls-1" d="M997.71,488.55v20h-20" transform="translate(-839.67 -470.93)"/><path class="cls-1" d="M1012.28,557a85.89,85.89,0,0,1-86,86,86.76,86.76,0,0,1-71.58-37.34" transform="translate(-839.67 -470.93)"/><path class="cls-1" d="M854.55,626.06V606h20" transform="translate(-839.67 -470.93)"/><polygon class="cls-2" points="41.25 113.68 41.25 87.85 63.7 74.84 85.97 88.03 85.97 113.86 63.7 126.69 41.25 113.68"/><path d="M903.36,546.35l21.77,12.89V584.5L903.37,597l-22-12.72V559.07l21.94-12.72m0-1.16-23,13.3V584.9l23,13.29,22.76-13.11V558.67l-22.76-13.48Z" transform="translate(-839.67 -470.93)"/><line class="cls-1" x1="52.23" y1="107.41" x2="52.23" y2="94.3"/><line class="cls-1" x1="63.7" y1="127.45" x2="63.7" y2="153.86"/><polygon class="cls-2" points="86.97 113.86 86.97 88.03 109.24 74.84 131.87 88.03 131.87 113.86 109.42 126.87 86.97 113.86"/><path d="M948.9,546.35,971,559.25V584.5l-21.95,12.72-22-12.72V559.24l21.77-12.89m0-1.16-22.77,13.48v26.41l23,13.3L972,585.08V558.67L948.9,545.19Z" transform="translate(-839.67 -470.93)"/><line class="cls-1" x1="120.71" y1="107.41" x2="109.23" y2="114.15"/><line class="cls-1" x1="132.37" y1="87.74" x2="155.32" y2="74.26"/><polygon class="cls-2" points="64.02 73.98 64.02 48.14 86.47 35.14 108.92 48.14 108.92 74.16 86.47 87.16 64.02 73.98"/><path d="M926.13,506.64l22,12.72V544.8l-21.94,12.71-22-12.89V519.36l22-12.72m0-1.15-23,13.29v26.41l23,13.48,23-13.29v-26.6l-23-13.29Z" transform="translate(-839.67 -470.93)"/><line class="cls-1" x1="86.47" y1="47.86" x2="97.94" y2="54.59"/><line class="cls-1" x1="63.7" y1="47.86" x2="40.57" y2="34.56"/></svg>