<svg id="Layer_1" data-name="Layer 1" xmlns="http://www.w3.org/2000/svg" viewBox="0 0 84.8 94.27"><title>skin_icon4</title><path d="M893,524.44l2.1,13.1c.2,1,.3,2.1.4,3.1a1,1,0,0,0,1,.9h.1a1,1,0,0,0,.9-1,31.06,31.06,0,0,0-.4-3.2l-1.9-10.9a13.24,13.24,0,0,0,18.5-3.4,13.69,13.69,0,0,0,2.4-7.6,1,1,0,0,0-1-1,.94.94,0,0,0-1,1,11.4,11.4,0,1,1-22.8,0,12,12,0,0,1,1.9-6.4.89.89,0,0,0-.3-1.3.87.87,0,0,0-1.3.3h0a13.41,13.41,0,0,0,1.4,16.4Z" transform="translate(-873.7 -507.57)"/><path d="M948.35,583.84h0a1,1,0,0,0-1,1,40.9,40.9,0,0,1-.5,7.8l-1.3,8a1,1,0,0,0,1.9.3l1.3-8a45.17,45.17,0,0,0,.5-8.2c.1-.4-.3-.9-.9-.9Z" transform="translate(-873.7 -507.57)"/><path d="M934.65,581.94l-17.2,8.2-28.8-13.8a41.62,41.62,0,0,1,1.6-5,117.88,117.88,0,0,0,27.7,3.3,110.49,110.49,0,0,0,26.8-3.3c.2.6.4,1.1.6,1.7a.95.95,0,0,0,1.8-.6c-.3-.9-.6-1.7-.9-2.5l-3.7-9.1a43.14,43.14,0,0,1-2.6-23.3l2.1-13.1h0a13.25,13.25,0,0,0,1.5-15.9,1,1,0,0,0-1.4-.3,1.06,1.06,0,0,0-.3,1.3,11.35,11.35,0,1,1-21.1,5.9,1,1,0,0,0-1-1,.94.94,0,0,0-1,1,13.38,13.38,0,0,0,13.4,13.3,13,13,0,0,0,7.6-2.4l-1.8,10.8a44,44,0,0,0,2.8,24.3l3.3,8a113.46,113.46,0,0,1-53.1,0l3.3-8a.93.93,0,0,0-.6-1.2,1,1,0,0,0-1.2.5l-3.7,9.1a40,40,0,0,0-2.1,6.7c0,.1-.1.2-.1.4a41.6,41.6,0,0,0-.5,16.1l1.3,7.9a1,1,0,1,0,1.9-.1v-.2l-1.3-8a38.72,38.72,0,0,1,.3-14.4l28.3,13.5v9a1,1,0,0,0,2,0h0v-9l17.1-8.2a1,1,0,0,0,.5-1.3,1.63,1.63,0,0,0-1.5-.3Z" transform="translate(-873.7 -507.57)"/><path d="M917.45,558.34a1,1,0,0,0,1-1h0v-1a1,1,0,0,0-1-1,.94.94,0,0,0-1,1h0v1a.94.94,0,0,0,1,1Z" transform="translate(-873.7 -507.57)"/><path d="M902.45,555a1.09,1.09,0,0,0,1.2-.7h0a26.62,26.62,0,0,0,.7-3.9,1,1,0,0,0-.9-1,1,1,0,0,0-1,.8,22.87,22.87,0,0,1-.7,3.6,1,1,0,0,0,.7,1.2Z" transform="translate(-873.7 -507.57)"/><path d="M898.85,562.84a1,1,0,0,0,1.3-.3,39,39,0,0,0,1.9-3.5,1,1,0,0,0-1.8-.8h0c-.5,1.1-1.1,2.2-1.7,3.3A.89.89,0,0,0,898.85,562.84Z" transform="translate(-873.7 -507.57)"/><path d="M904,541.54a1,1,0,0,0-1.9.3h0c.2,1.2.4,2.4.5,3.7a1,1,0,0,0,1.9-.1h0a26,26,0,0,0-.5-3.9Z" transform="translate(-873.7 -507.57)"/><path d="M902.15,538a.93.93,0,0,0,.6-1.2,24.3,24.3,0,0,0-1.6-3.7.95.95,0,0,0-1.6,1,20.65,20.65,0,0,1,1.5,3.4c0,.4.6.6,1.1.5Z" transform="translate(-873.7 -507.57)"/><path d="M930.85,541.54c-.2,1.3-.4,2.6-.5,3.9a1,1,0,0,0,.9,1h.1a1.06,1.06,0,0,0,1-.9,23.48,23.48,0,0,1,.5-3.7.92.92,0,0,0-.8-1.1,1,1,0,0,0-1.2.8Z" transform="translate(-873.7 -507.57)"/><path d="M935.05,532.74a1,1,0,0,0-1.3.3,29.54,29.54,0,0,0-1.6,3.7.95.95,0,1,0,1.8.6h0a20.65,20.65,0,0,1,1.5-3.4c.3-.3.1-.9-.4-1.2Z" transform="translate(-873.7 -507.57)"/><path d="M933.05,553.84c-.3-1.2-.5-2.4-.7-3.6a1,1,0,0,0-1.9.3h0a26.62,26.62,0,0,0,.7,3.9,1,1,0,0,0,1.2.7,1.05,1.05,0,0,0,.7-1.3Z" transform="translate(-873.7 -507.57)"/><path d="M934.75,562.54a.94.94,0,1,0,1.6-1,34.12,34.12,0,0,1-1.7-3.3,1,1,0,1,0-1.8.8h0c.6,1.2,1.2,2.3,1.9,3.5Z" transform="translate(-873.7 -507.57)"/><path d="M944.85,547.54a.92.92,0,1,0-.4,1.8h.1a14.64,14.64,0,0,1-3.6,29l1.5-2.2a.94.94,0,0,0-1.6-1l-2.2,3.3a1.88,1.88,0,0,0-.2.8,1.23,1.23,0,0,0,.4.8l3.3,3.4a1,1,0,0,0,1.4-1.4h0l-1.7-1.8h.2a16.47,16.47,0,0,0,16.3-14,16.82,16.82,0,0,0-13.5-18.7Z" transform="translate(-873.7 -507.57)"/><path d="M883,577.44a14.65,14.65,0,0,1,13.4-26l-2.2,1.6a.93.93,0,0,0,1.1,1.5l3.2-2.4a1.79,1.79,0,0,0,.5-.7,1.06,1.06,0,0,0-.1-.8l-1.9-4.3a1,1,0,1,0-1.8.8h0l1,2.2a16.56,16.56,0,0,0-14.4,29.7,1,1,0,0,0,1.3-.3.8.8,0,0,0-.1-1.3Z" transform="translate(-873.7 -507.57)"/></svg>